<svg width="180" height="180" viewBox="0 0 180 180" fill="none" xmlns="http://www.w3.org/2000/svg">
  <defs>
    <linearGradient id="appleGradient" x1="0%" y1="0%" x2="100%" y2="100%">
      <stop offset="0%" stop-color="#6FBF44" />
      <stop offset="50%" stop-color="#F6A23A" />
      <stop offset="100%" stop-color="#E94A7F" />
    </linearGradient>
  </defs>
  
  <!-- Background -->
  <rect fill="url(#appleGradient)" width="180" height="180" rx="37" />
  
  <!-- Apple Shape -->
  <g transform="translate(90, 90)">
    <!-- Apple Body -->
    <path fill="white" d="M-25,-15 C-25,-35 -15,-40 0,-40 C15,-40 25,-35 25,-15 C25,0 20,20 15,30 C10,35 5,35 0,35 C-5,35 -10,35 -15,30 C-20,20 -25,0 -25,-15 Z" />
    
    <!-- Apple Leaf -->
    <path fill="white" d="M5,-40 C10,-45 15,-42 12,-38 C8,-40 5,-40 5,-40 Z" />
    
    <!-- Apple Stem -->
    <rect fill="white" x="-1" y="-45" width="2" height="8" rx="1" />
    
    <!-- AI Brain Pattern Inside Apple -->
    <g stroke="rgba(111,191,68,0.8)" stroke-width="1.5" fill="none">
      <circle cx="-8" cy="-10" r="2" />
      <circle cx="8" cy="-10" r="2" />
      <circle cx="0" cy="5" r="2" />
      <circle cx="-8" cy="15" r="2" />
      <circle cx="8" cy="15" r="2" />
      <line x1="-8" y1="-10" x2="0" y2="5" />
      <line x1="8" y1="-10" x2="0" y2="5" />
      <line x1="0" y1="5" x2="-8" y2="15" />
      <line x1="0" y1="5" x2="8" y2="15" />
    </g>
  </g>
</svg>