<svg width="180" height="180" viewBox="0 0 180 180" fill="none" xmlns="http://www.w3.org/2000/svg">
  <defs>
    <linearGradient id="gradient" x1="0%" y1="0%" x2="100%" y2="100%">
      <stop offset="0%" stop-color="#6FBF44" />
      <stop offset="50%" stop-color="#F6A23A" />
      <stop offset="100%" stop-color="#E94A7F" />
    </linearGradient>
  </defs>
  
  <!-- Background with rounded corners -->
  <rect fill="url(#gradient)" width="180" height="180" rx="37" />
  
  <!-- Apple Icon centered -->
  <g transform="translate(90, 90)">
    <path fill="white" d="M-20,-10 C-20,-25 -12,-30 0,-30 C12,-30 20,-25 20,-10 C20,5 16,20 12,28 C8,32 4,32 0,32 C-4,32 -8,32 -12,28 C-16,20 -20,5 -20,-10 Z" />
    <path fill="white" d="M4,-30 C8,-34 12,-32 10,-28 C7,-30 4,-30 4,-30 Z" />
    <rect fill="white" x="-1" y="-34" width="2" height="6" rx="1" />
  </g>
</svg>